<?xml version="1.0" encoding="utf-8"?>

<!DOCTYPE svg PUBLIC "-//W3C//DTD SVG 1.1//EN" "http://www.w3.org/Graphics/SVG/1.1/DTD/svg11.dtd">
<!-- Uploaded to: SVG Repo, www.svgrepo.com, Generator: SVG Repo Mixer Tools -->
<svg version="1.1" id="SECURITY" xmlns="http://www.w3.org/2000/svg" xmlns:xlink="http://www.w3.org/1999/xlink" 
	 width="800px" height="800px" viewBox="0 0 1800 1800" enable-background="new 0 0 1800 1800" xml:space="preserve">
<g>
	<path fill="#333333" d="M1096.233,698.227c0-108.2-88.028-196.229-196.229-196.229c-108.205,0-196.234,88.029-196.234,196.229
		v74.779H571.518v226.107c1.825,179.273,149.183,325.127,328.487,325.127s326.658-145.854,328.478-325.445V773.006h-132.249V698.227
		z M1165.753,835.734v162.74c-1.47,145.039-120.684,263.037-265.749,263.037s-264.283-117.998-265.758-262.717V835.734H1165.753z
		 M766.5,773.006v-74.779c0-73.611,59.889-133.5,133.504-133.5c73.611,0,133.5,59.889,133.5,133.5v74.779H766.5z"/>
	<path fill="#333333" d="M1668.854,759.284c-58.126-318.375-309.768-570.017-628.138-628.141
		C1031.553,61.639,971.966,7.808,900,7.808S768.442,61.642,759.28,131.146C440.91,189.271,189.268,440.914,131.146,759.284
		c-69.507,9.162-123.34,68.754-123.34,140.72c0,71.968,53.833,131.551,123.34,140.713
		c58.121,318.371,309.763,570.008,628.134,628.135c9.162,69.502,68.754,123.34,140.72,123.34s131.553-53.834,140.716-123.34
		c318.37-58.122,570.017-309.764,628.138-628.13c69.507-9.163,123.34-68.75,123.34-140.718
		C1792.193,828.038,1738.36,768.446,1668.854,759.284z M900,70.537c33.898,0,62.808,21.432,74.109,51.424
		c3.27,8.672,5.142,18.025,5.142,27.827c0,12.525-3.001,24.335-8.195,34.876c-12.93,26.241-39.88,44.382-71.056,44.382
		c-31.181,0-58.13-18.141-71.06-44.382c-5.198-10.541-8.196-22.351-8.196-34.876c0-9.801,1.873-19.154,5.142-27.827
		C837.188,91.969,866.098,70.537,900,70.537z M121.962,974.115c-29.995-11.306-51.427-40.211-51.427-74.111
		c0-33.902,21.432-62.812,51.427-74.114c8.672-3.269,18.027-5.142,27.829-5.142c12.523,0,24.333,2.998,34.874,8.196
		c26.236,12.93,44.377,39.879,44.377,71.06c0,31.179-18.141,58.123-44.377,71.058c-10.541,5.19-22.351,8.191-34.874,8.191
		C139.989,979.253,130.634,977.381,121.962,974.115z M900,1729.462c-33.902,0-62.812-21.432-74.114-51.427
		c-3.269-8.672-5.142-18.027-5.142-27.828c0-12.523,2.998-24.334,8.196-34.875c12.93-26.24,39.879-44.377,71.06-44.377
		c31.176,0,58.126,18.137,71.056,44.377c5.194,10.541,8.195,22.352,8.195,34.875c0,9.801-1.872,19.156-5.142,27.828
		C962.808,1708.03,933.898,1729.462,900,1729.462z M1034.927,1606.087c-18.605-56.747-72.04-97.86-134.927-97.86
		s-116.326,41.113-134.931,97.86c-288.367-54.993-516.166-282.788-571.159-571.159c56.748-18.604,97.861-72.039,97.861-134.924
		c0-62.887-41.113-116.326-97.861-134.931c54.993-288.371,282.792-516.17,571.159-571.163
		c18.605,56.752,72.044,97.865,134.931,97.865s116.321-41.113,134.927-97.865c288.371,54.993,516.17,282.792,571.163,571.163
		c-56.752,18.605-97.865,72.044-97.865,134.931c0,62.885,41.113,116.319,97.865,134.924
		C1551.097,1323.299,1323.298,1551.094,1034.927,1606.087z M1678.038,974.115c-8.673,3.266-18.023,5.138-27.824,5.138
		c-12.528,0-24.338-3.001-34.879-8.191c-26.24-12.935-44.382-39.879-44.382-71.058c0-31.176,18.142-58.126,44.382-71.06
		c10.541-5.198,22.351-8.196,34.879-8.196c9.801,0,19.151,1.873,27.824,5.142c29.995,11.298,51.427,40.212,51.427,74.114
		C1729.465,933.904,1708.033,962.818,1678.038,974.115z"/>
</g>
</svg>